<mxfile host="multicloud-diagrams" agent="PIP package multicloud-diagrams. Generate resources in draw.io compatible format for Cloud infrastructure. Copyrights @ Roman Tsypuk 2023. MIT license." type="MultiCloud">
	<diagram id="diagram_1" name="AWS components">
		<mxGraphModel dx="1015" dy="661" grid="1" gridSize="10" guides="1" tooltips="1" connect="1" arrows="1" fold="1" page="1" pageScale="1" pageWidth="850" pageHeight="1100" math="0" shadow="1">
			<root>
				<mxCell id="0"/>
				<mxCell id="1" parent="0"/>
				<mxCell id="vertex:local_zones:arn:aws:local_zones:eu-west-1:123456789012:local_zones/1" value="&lt;b&gt;Name&lt;/b&gt;: Local Zones&lt;BR&gt;&lt;b&gt;ARN&lt;/b&gt;: arn:aws:local_zones:eu-west-1:123456789012:local_zones/1&lt;BR&gt;-----------&lt;BR&gt;&lt;b&gt;State&lt;/b&gt;: available&lt;BR&gt;&lt;b&gt;OptInStatus&lt;/b&gt;: opt-in-not-required&lt;BR&gt;&lt;b&gt;RegionName&lt;/b&gt;: eu-west-1&lt;BR&gt;&lt;b&gt;ZoneName&lt;/b&gt;: eu-west-1-az-1&lt;BR&gt;&lt;b&gt;ZoneId&lt;/b&gt;: az-1&lt;BR&gt;&lt;b&gt;GroupName&lt;/b&gt;: europe&lt;BR&gt;&lt;b&gt;NetworkBorderGroup&lt;/b&gt;: ng-europe-1&lt;BR&gt;&lt;b&gt;ZoneType&lt;/b&gt;: Local&lt;BR&gt;&lt;b&gt;ParentZoneName&lt;/b&gt;: eu-west-1&lt;BR&gt;&lt;b&gt;ParentZoneId&lt;/b&gt;: eu-west-1" style="sketch=0;outlineConnect=0;fontColor=#232F3E;fillColor=#ED7100;strokeColor=#ffffff;dashed=0;verticalLabelPosition=bottom;verticalAlign=top;align=left;html=1;fontSize=12;fontStyle=0;aspect=fixed;shape=mxgraph.aws4.resourceIcon;resIcon=mxgraph.aws4.local_zones;" parent="1" vertex="1">
					<mxGeometry width="78" height="78" as="geometry"/>
				</mxCell>
			</root>
		</mxGraphModel>
	</diagram>
</mxfile>